<?xml version="1.0" standalone="no"?>
<!DOCTYPE svg PUBLIC "-//W3C//DTD SVG 20010904//EN"
 "http://www.w3.org/TR/2001/REC-SVG-20010904/DTD/svg10.dtd">
<svg version="1.0" xmlns="http://www.w3.org/2000/svg"
 width="512.000000pt" height="512.000000pt" viewBox="0 0 512.000000 512.000000"
 preserveAspectRatio="xMidYMid meet">
<metadata>
Created by potrace 1.14, written by Peter Selinger 2001-2017
</metadata>
<g transform="translate(0.000000,512.000000) scale(0.100000,-0.100000)"
fill="#000000" stroke="none">
<path d="M0 2560 l0 -2560 2560 0 2560 0 0 2560 0 2560 -2560 0 -2560 0 0
-2560z m1376 1859 c76 -29 138 -87 163 -154 54 -144 66 -472 87 -2295 3 -322
7 -585 8 -586 0 -1 330 -9 731 -18 1430 -33 1618 -45 1755 -113 45 -23 59 -37
79 -76 21 -42 24 -63 24 -160 1 -204 -47 -255 -278 -292 -173 -28 -446 -35
-1380 -35 -1136 0 -1326 9 -1444 70 -21 10 -78 51 -125 90 l-86 71 -2 442 c-1
243 -3 456 -4 472 -1 17 -4 521 -6 1120 -3 981 -1 1098 13 1171 21 102 40 143
92 195 108 108 248 145 373 98z"/>
</g>
</svg>
